<mxfile host="app.diagrams.net" agent="Mozilla/5.0 (Windows NT 10.0; Win64; x64) AppleWebKit/537.36 (KHTML, like Gecko) Chrome/139.0.0.0 Safari/537.36" version="28.0.9">
  <diagram name="Page-1" id="NvovjpbAJolXnAOq5Lky">
    <mxGraphModel dx="872" dy="431" grid="1" gridSize="10" guides="1" tooltips="1" connect="1" arrows="1" fold="1" page="1" pageScale="1" pageWidth="850" pageHeight="1100" math="0" shadow="0">
      <root>
        <mxCell id="0" />
        <mxCell id="1" parent="0" />
        <mxCell id="xz4TZ5ooUgcts6d2_Aua-1" value="" style="rounded=1;whiteSpace=wrap;html=1;fillColor=#dae8fc;strokeColor=#6c8ebf;" vertex="1" parent="1">
          <mxGeometry x="240" y="10" width="270" height="160" as="geometry" />
        </mxCell>
        <mxCell id="xz4TZ5ooUgcts6d2_Aua-2" value="" style="endArrow=none;html=1;rounded=0;exitX=0.015;exitY=0.615;exitDx=0;exitDy=0;exitPerimeter=0;entryX=0.996;entryY=0.646;entryDx=0;entryDy=0;entryPerimeter=0;" edge="1" parent="1" source="xz4TZ5ooUgcts6d2_Aua-1" target="xz4TZ5ooUgcts6d2_Aua-1">
          <mxGeometry width="50" height="50" relative="1" as="geometry">
            <mxPoint x="400" y="250" as="sourcePoint" />
            <mxPoint x="450" y="200" as="targetPoint" />
          </mxGeometry>
        </mxCell>
        <mxCell id="xz4TZ5ooUgcts6d2_Aua-4" style="edgeStyle=orthogonalEdgeStyle;rounded=0;orthogonalLoop=1;jettySize=auto;html=1;" edge="1" parent="1">
          <mxGeometry relative="1" as="geometry">
            <mxPoint x="375" y="120" as="targetPoint" />
            <mxPoint x="375" y="90" as="sourcePoint" />
          </mxGeometry>
        </mxCell>
        <mxCell id="xz4TZ5ooUgcts6d2_Aua-5" value="&lt;b&gt;emptyDir. useful to share the storage&amp;nbsp;&lt;/b&gt;&lt;div&gt;&lt;b&gt;b/w containers&lt;/b&gt;&lt;/div&gt;" style="text;html=1;align=center;verticalAlign=middle;resizable=0;points=[];autosize=1;strokeColor=none;fillColor=none;" vertex="1" parent="1">
          <mxGeometry x="250" y="125" width="240" height="40" as="geometry" />
        </mxCell>
        <mxCell id="xz4TZ5ooUgcts6d2_Aua-6" value="" style="ellipse;whiteSpace=wrap;html=1;aspect=fixed;" vertex="1" parent="1">
          <mxGeometry x="335" y="10" width="80" height="80" as="geometry" />
        </mxCell>
        <mxCell id="xz4TZ5ooUgcts6d2_Aua-7" value="&lt;b&gt;C2&lt;/b&gt;" style="ellipse;whiteSpace=wrap;html=1;fillColor=#fff2cc;strokeColor=#d6b656;" vertex="1" parent="1">
          <mxGeometry x="350" y="50" width="50" height="30" as="geometry" />
        </mxCell>
        <mxCell id="xz4TZ5ooUgcts6d2_Aua-8" value="&lt;b&gt;C1&lt;/b&gt;" style="ellipse;whiteSpace=wrap;html=1;fillColor=#f8cecc;strokeColor=#b85450;" vertex="1" parent="1">
          <mxGeometry x="350" y="20" width="50" height="30" as="geometry" />
        </mxCell>
        <mxCell id="xz4TZ5ooUgcts6d2_Aua-9" value="&lt;ol&gt;&lt;li&gt;&lt;b&gt;fetch the secrets from seretmanager&lt;/b&gt;&lt;/li&gt;&lt;li&gt;&lt;b&gt;sidecars, sidecar access the main container logs and push to ELK&lt;/b&gt;&lt;/li&gt;&lt;/ol&gt;" style="text;html=1;align=left;verticalAlign=middle;resizable=0;points=[];autosize=1;strokeColor=none;fillColor=none;" vertex="1" parent="1">
          <mxGeometry x="130" y="150" width="440" height="70" as="geometry" />
        </mxCell>
        <mxCell id="xz4TZ5ooUgcts6d2_Aua-15" style="edgeStyle=orthogonalEdgeStyle;rounded=0;orthogonalLoop=1;jettySize=auto;html=1;entryX=0.5;entryY=1;entryDx=0;entryDy=0;" edge="1" parent="1" source="xz4TZ5ooUgcts6d2_Aua-10" target="xz4TZ5ooUgcts6d2_Aua-14">
          <mxGeometry relative="1" as="geometry" />
        </mxCell>
        <mxCell id="xz4TZ5ooUgcts6d2_Aua-10" value="" style="rounded=0;whiteSpace=wrap;html=1;" vertex="1" parent="1">
          <mxGeometry x="340" y="400" width="140" height="100" as="geometry" />
        </mxCell>
        <mxCell id="xz4TZ5ooUgcts6d2_Aua-12" style="edgeStyle=orthogonalEdgeStyle;rounded=0;orthogonalLoop=1;jettySize=auto;html=1;entryX=0.5;entryY=0;entryDx=0;entryDy=0;" edge="1" parent="1" source="xz4TZ5ooUgcts6d2_Aua-11" target="xz4TZ5ooUgcts6d2_Aua-10">
          <mxGeometry relative="1" as="geometry" />
        </mxCell>
        <mxCell id="xz4TZ5ooUgcts6d2_Aua-11" value="Amazon EKS" style="sketch=0;outlineConnect=0;fontColor=#232F3E;gradientColor=none;strokeColor=#ffffff;fillColor=#232F3E;dashed=0;verticalLabelPosition=middle;verticalAlign=bottom;align=center;html=1;whiteSpace=wrap;fontSize=10;fontStyle=1;spacing=3;shape=mxgraph.aws4.productIcon;prIcon=mxgraph.aws4.eks;" vertex="1" parent="1">
          <mxGeometry x="370" y="240" width="80" height="100" as="geometry" />
        </mxCell>
        <mxCell id="xz4TZ5ooUgcts6d2_Aua-13" value="" style="ellipse;whiteSpace=wrap;html=1;" vertex="1" parent="1">
          <mxGeometry x="375" y="410" width="70" height="40" as="geometry" />
        </mxCell>
        <mxCell id="xz4TZ5ooUgcts6d2_Aua-14" value="&lt;b&gt;ELK&lt;/b&gt;" style="rounded=0;whiteSpace=wrap;html=1;" vertex="1" parent="1">
          <mxGeometry x="560" y="290" width="120" height="60" as="geometry" />
        </mxCell>
      </root>
    </mxGraphModel>
  </diagram>
</mxfile>
